<?xml version="1.0" standalone="no"?>
<!DOCTYPE svg PUBLIC "-//W3C//DTD SVG 20010904//EN"
 "http://www.w3.org/TR/2001/REC-SVG-20010904/DTD/svg10.dtd">
<svg version="1.0" xmlns="http://www.w3.org/2000/svg"
 width="256.000000pt" height="256.000000pt" viewBox="0 0 256.000000 256.000000"
 preserveAspectRatio="xMidYMid meet">
<metadata>
Created by potrace 1.16, written by Peter Selinger 2001-2019
</metadata>
<g transform="translate(0.000000,256.000000) scale(0.100000,-0.100000)"
fill="#000000" stroke="none">
<path d="M818 2501 c-32 -32 -58 -61 -58 -65 0 -4 -8 -16 -18 -26 -21 -23 -66
-100 -58 -100 3 0 28 33 55 73 27 39 70 92 95 115 38 36 57 63 44 62 -2 0 -29
-27 -60 -59z"/>
<path d="M913 2519 c-29 -22 -53 -45 -53 -52 0 -7 -17 -29 -37 -48 l-37 -34
32 40 c38 47 43 74 7 30 -64 -76 -175 -268 -175 -303 0 -4 -20 -58 -45 -120
-25 -61 -45 -124 -45 -138 0 -36 -29 -162 -47 -202 -8 -19 -13 -35 -11 -38 12
-12 53 133 73 258 3 20 12 50 20 65 8 15 15 34 15 41 0 6 4 12 9 12 4 0 6 -10
4 -23 -3 -13 3 -58 11 -100 9 -42 17 -116 17 -164 2 -86 2 -87 10 -33 4 30 11
71 14 91 5 25 2 46 -9 67 -20 38 -14 186 9 253 39 109 146 273 221 339 32 28
59 55 59 58 1 18 17 30 38 25 18 -4 19 -3 7 6 -22 16 -30 13 -87 -30z"/>
<path d="M1569 2551 c10 -6 10 -10 1 -13 -6 -2 30 -28 81 -58 96 -57 212 -154
242 -202 27 -45 21 -42 -38 17 -52 51 -75 66 -75 47 0 -7 58 -73 195 -222 51
-56 102 -140 121 -200 9 -30 23 -69 30 -86 7 -18 16 -49 19 -70 4 -22 13 -56
21 -77 8 -21 11 -49 8 -63 -4 -16 1 -40 14 -67 12 -23 23 -55 25 -72 4 -28 4
-28 6 5 0 20 -3 40 -9 46 -5 5 -14 48 -20 94 -18 166 -71 367 -93 353 -6 -3
-7 -1 -3 6 9 14 -40 96 -99 166 -41 49 -105 141 -105 151 0 3 -43 48 -96 100
-99 97 -146 130 -166 118 -6 -4 -8 -3 -5 3 4 6 -5 15 -19 22 -30 13 -56 15
-35 2z"/>
<path d="M2527 2432 c-3 -70 -6 -199 -6 -286 -1 -88 -5 -164 -8 -169 -4 -6 -1
-7 8 -2 11 7 12 6 3 -6 -15 -20 -16 -171 0 -162 8 5 8 3 -1 -8 -14 -17 -21
-497 -8 -519 5 -8 4 -11 -2 -7 -7 4 -11 -34 -11 -111 -1 -64 -5 -181 -8 -258
-5 -100 -3 -143 5 -148 6 -4 12 -17 13 -29 1 -12 5 39 8 113 3 74 2 137 -2
138 -5 2 -7 58 -6 125 1 100 3 111 8 62 6 -50 7 -40 9 60 3 232 21 962 27
1141 5 153 4 182 -9 187 -12 4 -15 -16 -20 -121z m0 -674 c-3 -7 -5 -2 -5 12
0 14 2 19 5 13 2 -7 2 -19 0 -25z m-10 -460 c-3 -8 -6 -5 -6 6 -1 11 2 17 5
13 3 -3 4 -12 1 -19z"/>
<path d="M1330 2523 c14 -3 59 -30 100 -62 98 -75 105 -78 92 -55 -11 22 -95
95 -129 112 -12 7 -37 11 -55 11 -27 -1 -29 -3 -8 -6z"/>
<path d="M1005 2490 c-10 -11 -13 -20 -7 -20 6 0 16 9 22 20 6 11 9 20 7 20
-2 0 -12 -9 -22 -20z"/>
<path d="M1130 2465 c-7 -9 -11 -17 -9 -20 3 -2 10 5 17 15 14 24 10 26 -8 5z"/>
<path d="M1185 2439 c-4 -6 -5 -12 -2 -15 2 -3 7 2 10 11 7 17 1 20 -8 4z"/>
<path d="M1590 2426 c0 -3 9 -10 20 -16 11 -6 20 -8 20 -6 0 3 -9 10 -20 16
-11 6 -20 8 -20 6z"/>
<path d="M1463 2392 c16 -16 29 -34 28 -38 0 -5 5 -9 12 -9 19 0 58 -25 53
-34 -3 -4 4 -20 15 -37 l20 -29 -5 30 c-3 20 -23 46 -58 78 -65 59 -106 84
-65 39z"/>
<path d="M1340 2379 c0 -8 27 -19 47 -19 8 0 28 -9 45 -21 39 -28 48 -17 12
16 l-28 26 28 -11 c16 -6 31 -8 34 -6 3 3 -2 8 -10 11 -22 9 -128 11 -128 4z"/>
<path d="M1730 2313 c0 -13 29 -38 35 -31 3 3 -4 13 -15 23 -11 10 -20 13 -20
8z"/>
<path d="M1397 2304 c-3 -4 1 -13 9 -22 13 -12 13 -16 2 -23 -10 -7 -9 -9 5
-9 38 0 137 -136 137 -189 0 -12 4 -20 9 -17 5 4 7 -4 3 -16 -3 -11 -1 -19 4
-16 5 4 9 -8 10 -25 0 -18 14 -77 30 -133 18 -60 26 -101 20 -102 -6 0 -35 -3
-64 -5 -59 -4 -106 -32 -81 -48 17 -11 77 -10 104 1 17 6 15 9 -17 15 -20 4
-47 4 -60 0 -18 -6 -21 -5 -11 6 7 7 39 14 73 16 l60 3 0 -38 c0 -20 3 -48 5
-62 5 -24 5 -24 -4 -2 -8 17 -18 22 -43 20 l-33 -1 33 -4 c23 -3 32 -9 32 -23
0 -16 -8 -18 -72 -16 -40 0 -76 5 -79 10 -9 12 -42 -40 -36 -56 2 -7 8 -1 12
15 8 31 26 37 20 7 -4 -19 1 -20 38 -18 47 2 106 -9 125 -24 6 -6 12 -20 12
-32 0 -19 -5 -22 -37 -19 -35 2 -35 1 -8 -5 26 -6 30 -12 33 -45 3 -30 0 -37
-14 -37 -16 0 -16 -1 -2 -12 9 -7 19 -24 21 -38 4 -18 5 -15 5 10 -2 72 2 101
12 95 11 -7 8 104 -4 123 -3 6 -14 8 -24 5 -9 -4 -4 4 12 18 27 24 28 28 30
122 0 57 4 88 8 75 5 -15 6 -10 2 12 -3 19 -9 76 -14 125 -17 161 -30 220 -50
233 -18 11 -18 10 0 -56 12 -47 18 -102 18 -182 0 -113 -1 -114 -14 -70 -8 25
-13 49 -11 55 2 5 -2 16 -10 23 -7 7 -13 21 -12 30 0 12 3 11 9 -5 5 -13 12
-23 15 -23 9 0 -4 132 -14 144 -5 6 -12 25 -16 43 -3 18 -17 48 -30 67 -13 19
-21 37 -19 40 2 3 1 4 -2 2 -4 -3 -29 11 -58 30 -53 36 -59 38 -69 28z"/>
<path d="M707 2131 c-29 -53 -33 -76 -16 -87 7 -4 10 -1 7 7 -5 14 17 69 28
69 2 0 0 -9 -6 -19 -15 -29 -12 -38 5 -14 8 12 12 28 9 36 -3 9 -1 25 6 36 6
12 7 21 2 21 -5 0 -21 -22 -35 -49z"/>
<path d="M866 2165 c-8 -9 -19 -14 -23 -13 -4 2 -24 -19 -44 -45 -35 -47 -79
-161 -66 -173 15 -15 36 8 42 48 9 53 21 77 52 102 16 12 23 26 20 37 -3 11
-2 17 3 14 4 -3 15 6 24 20 19 28 15 33 -8 10z"/>
<path d="M1795 2081 c5 -25 34 -80 35 -65 0 14 -29 84 -35 84 -2 0 -2 -9 0
-19z"/>
<path d="M1364 2033 c13 -27 30 -25 34 5 3 18 -1 22 -20 20 -21 -2 -23 -5 -14
-25z m26 2 c0 -8 -2 -15 -4 -15 -2 0 -6 7 -10 15 -3 8 -1 15 4 15 6 0 10 -7
10 -15z"/>
<path d="M1437 2020 c3 -11 7 -20 9 -20 2 0 4 9 4 20 0 11 -4 20 -9 20 -5 0
-7 -9 -4 -20z"/>
<path d="M1770 1961 c0 -10 6 -36 14 -57 7 -22 11 -46 8 -54 -2 -9 2 -7 12 5
18 24 21 39 4 29 -7 -4 -8 -3 -4 4 9 15 -12 92 -24 92 -6 0 -10 -8 -10 -19z"/>
<path d="M1690 1871 c-4 -73 -1 -109 7 -120 8 -10 12 -54 13 -119 0 -67 5
-115 15 -138 9 -22 10 -32 3 -28 -8 5 -9 1 -3 -12 29 -70 54 -157 58 -207 3
-31 3 -55 -1 -53 -4 2 -8 -16 -9 -39 -3 -65 -85 -187 -153 -227 -19 -12 -53
-37 -74 -57 -34 -31 -37 -32 -18 -7 12 16 22 38 22 50 -1 17 -3 16 -14 -9 -21
-47 -86 -112 -140 -140 -63 -32 -167 -35 -224 -6 -55 28 -120 100 -142 157
-10 27 -19 41 -20 31 0 -10 7 -34 15 -54 l15 -36 -32 25 c-57 43 -164 184
-183 240 -9 29 -21 89 -25 133 -19 188 -42 340 -52 350 -31 29 35 -479 72
-558 22 -45 174 -223 189 -220 5 1 32 -25 62 -59 61 -70 96 -88 176 -88 72 0
120 13 168 46 26 17 36 20 32 10 -4 -9 -5 -16 -4 -16 1 0 36 33 78 73 49 45
76 78 74 90 -2 9 1 15 6 11 5 -3 15 -2 22 3 6 4 20 9 30 10 10 2 29 15 42 31
21 23 24 25 25 8 0 -29 13 -11 35 52 13 37 26 57 36 56 10 -1 19 14 25 42 6
24 7 44 3 44 -4 0 -4 29 -2 64 6 72 -19 207 -42 226 -29 24 -56 138 -49 205 4
38 1 82 -7 116 -7 30 -15 92 -19 139 l-6 85 -4 -104z"/>
<path d="M1806 1957 c3 -10 9 -15 12 -12 3 3 0 11 -7 18 -10 9 -11 8 -5 -6z"/>
<path d="M2037 1932 c3 -12 9 -25 14 -28 14 -8 11 10 -6 32 -13 18 -14 18 -8
-4z"/>
<path d="M1252 1919 c-7 -11 -11 -23 -9 -25 7 -7 29 24 25 36 -2 6 -9 1 -16
-11z"/>
<path d="M1970 1922 c0 -6 9 -29 20 -49 11 -21 20 -43 20 -50 0 -6 4 -15 10
-18 11 -7 -11 60 -34 102 -8 15 -15 22 -16 15z"/>
<path d="M1900 1913 c0 -4 5 -15 10 -23 8 -13 10 -13 10 2 0 9 -4 20 -10 23
-5 3 -10 3 -10 -2z"/>
<path d="M747 1833 c-10 -43 -18 -87 -18 -98 0 -15 -3 -13 -11 9 -8 21 -13 25
-19 15 -17 -26 -7 -105 11 -94 4 3 11 -7 15 -23 l8 -27 8 30 c13 41 39 204 39
238 0 51 -16 27 -33 -50z"/>
<path d="M1721 1875 c0 -16 4 -37 9 -45 8 -12 10 -11 9 5 -1 11 -5 31 -9 45
-8 24 -8 24 -9 -5z"/>
<path d="M2084 1853 c1 -17 4 -29 7 -27 4 2 10 -13 14 -33 4 -24 3 -39 -4 -41
-6 -2 -11 -8 -11 -13 0 -6 4 -8 9 -5 5 4 14 -6 19 -21 9 -23 11 -24 11 -7 1
11 -2 23 -5 27 -4 3 -8 23 -9 44 -2 21 -10 54 -17 73 l-15 35 1 -32z"/>
<path d="M1905 1828 c20 -70 52 -138 64 -138 6 0 17 -12 25 -27 18 -33 21 -25
4 12 -6 14 -15 25 -19 25 -4 0 -19 31 -33 69 -35 89 -62 128 -41 59z"/>
<path d="M1946 1848 c13 -45 32 -83 33 -67 1 19 -26 89 -35 89 -3 0 -2 -10 2
-22z"/>
<path d="M1840 1777 c0 -56 82 -259 115 -287 21 -18 19 -11 -24 84 -22 46 -49
116 -61 155 -22 74 -30 87 -30 48z"/>
<path d="M934 1760 c0 -27 62 -58 123 -62 28 -2 49 -6 47 -9 -2 -4 3 -9 11
-13 8 -3 15 0 15 5 0 7 11 9 25 7 15 -3 25 -1 25 6 0 29 -29 46 -105 60 -145
27 -141 27 -141 6z m92 -12 c4 -7 3 -8 -4 -4 -6 4 -20 3 -29 -2 -20 -10 -43
-5 -43 9 0 13 68 11 76 -3z m134 -35 c14 -14 12 -14 -15 0 -16 8 -37 17 -45
21 -8 3 -1 4 15 0 17 -3 37 -12 45 -21z m-145 -1 c-3 -3 -11 0 -18 7 -9 10 -8
11 6 5 10 -3 15 -9 12 -12z"/>
<path d="M1692 1720 c0 -14 2 -19 5 -12 2 6 2 18 0 25 -3 6 -5 1 -5 -13z"/>
<path d="M2096 1675 c4 -16 10 -37 15 -46 4 -9 11 -40 14 -68 3 -29 11 -64 16
-79 6 -14 9 -53 9 -87 -1 -33 3 -80 10 -105 8 -33 8 -61 0 -108 -7 -42 -7 -68
-1 -80 10 -15 11 -15 12 3 1 20 13 -23 27 -100 5 -23 13 -39 20 -37 7 1 12 -6
12 -16 0 -20 18 -42 35 -42 5 0 3 6 -5 13 -26 21 -39 79 -45 202 -9 187 -16
269 -23 257 -4 -5 -7 24 -7 66 0 59 -3 76 -13 74 -8 -1 -11 2 -8 7 9 15 -5 71
-17 64 -6 -3 -7 -1 -3 6 10 16 -3 53 -16 45 -7 -4 -8 -2 -4 4 4 7 -3 22 -14
34 l-21 23 7 -30z m81 -187 c-3 -8 -6 -5 -6 6 -1 11 2 17 5 13 3 -3 4 -12 1
-19z"/>
<path d="M1761 1674 c0 -11 3 -14 6 -6 3 7 2 16 -1 19 -3 4 -6 -2 -5 -13z"/>
<path d="M1146 1636 c18 -8 36 -27 44 -45 8 -21 16 -28 20 -20 6 8 11 6 19 -7
10 -18 10 -18 11 3 0 30 -10 53 -24 53 -7 0 -17 5 -24 12 -6 6 -26 13 -44 14
l-33 3 31 -13z"/>
<path d="M664 1578 c4 -29 12 -89 19 -133 l12 -80 3 58 3 58 20 -23 c16 -19
15 -14 -6 32 -13 30 -27 74 -31 97 -9 64 -28 54 -20 -9z"/>
<path d="M917 1613 c-10 -11 -20 -11 -42 -3 -15 6 -30 8 -33 5 -3 -3 -1 -5 5
-5 6 0 27 -12 48 -26 33 -22 42 -24 65 -14 15 6 70 12 123 12 93 0 96 1 86 20
-6 11 -17 17 -25 14 -9 -3 -12 -2 -9 5 11 17 -201 9 -218 -8z m19 -28 c17 -16
14 -18 -10 -9 -9 3 -16 10 -16 15 0 13 9 11 26 -6z"/>
<path d="M1289 1618 c10 -13 12 -43 9 -115 -3 -54 -8 -107 -12 -118 -5 -15 -4
-14 7 3 8 15 14 59 16 121 2 84 0 99 -16 112 -16 13 -17 12 -4 -3z"/>
<path d="M563 1395 c0 -22 2 -30 4 -17 2 12 2 30 0 40 -3 9 -5 -1 -4 -23z"/>
<path d="M1661 1405 c-1 -6 6 -36 14 -68 8 -31 16 -70 17 -86 2 -25 5 -28 16
-18 11 8 13 29 10 83 -5 81 -13 101 -33 84 -10 -8 -14 -7 -18 2 -3 7 -6 8 -6
3z m26 -57 c-3 -7 -5 -2 -5 12 0 14 2 19 5 13 2 -7 2 -19 0 -25z"/>
<path d="M1930 1384 c0 -11 7 -29 15 -40 14 -18 15 -17 9 11 -8 37 -24 57 -24
29z"/>
<path d="M1141 1339 c-25 -74 -15 -98 67 -156 75 -54 109 -58 169 -22 53 32
103 70 103 79 0 13 -35 7 -61 -11 -14 -10 -29 -16 -32 -13 -10 10 -47 -7 -47
-22 0 -17 -41 -19 -58 -2 -7 7 -36 24 -65 38 -44 23 -52 31 -59 64 -5 22 -4
45 2 57 6 11 7 19 1 19 -5 0 -14 -14 -20 -31z m6 -51 c-3 -8 -6 -5 -6 6 -1 11
2 17 5 13 3 -3 4 -12 1 -19z m233 -82 c0 -2 -7 -7 -16 -10 -8 -3 -12 -2 -9 4
6 10 25 14 25 6z"/>
<path d="M1212 1310 c0 -14 2 -19 5 -12 2 6 2 18 0 25 -3 6 -5 1 -5 -13z"/>
<path d="M701 1286 c-1 -16 3 -43 8 -60 6 -17 19 -68 31 -113 18 -72 67 -201
56 -148 -19 90 -31 138 -47 185 -10 30 -21 69 -24 87 -3 17 -9 42 -14 55 -9
22 -10 22 -10 -6z"/>
<path d="M1881 1264 c0 -11 3 -14 6 -6 3 7 2 16 -1 19 -3 4 -6 -2 -5 -13z"/>
<path d="M631 1254 c0 -11 3 -14 6 -6 3 7 2 16 -1 19 -3 4 -6 -2 -5 -13z"/>
<path d="M1310 1255 c0 -8 7 -15 15 -15 8 0 15 7 15 15 0 8 -7 15 -15 15 -8 0
-15 -7 -15 -15z"/>
<path d="M2028 1190 c-12 -39 -10 -76 3 -63 6 6 9 28 7 49 -3 35 -4 36 -10 14z"/>
<path d="M971 1162 c6 -19 154 -80 236 -97 85 -18 163 -20 163 -4 0 6 17 9 43
8 47 -4 169 31 164 46 -4 12 -27 11 -157 -4 -132 -16 -183 -19 -170 -11 16 10
-24 20 -78 20 -24 0 -57 7 -74 16 -17 9 -47 16 -67 16 -20 0 -42 5 -50 11 -11
9 -13 9 -10 -1z m252 -59 c-7 -2 -21 -2 -30 0 -10 3 -4 5 12 5 17 0 24 -2 18
-5z m160 -10 c-7 -2 -19 -2 -25 0 -7 3 -2 5 12 5 14 0 19 -2 13 -5z"/>
<path d="M591 1070 c-1 -106 9 -221 19 -215 4 2 5 -7 2 -21 -3 -15 2 -32 12
-43 21 -23 55 -33 58 -18 1 7 4 -19 8 -58 5 -68 6 -69 19 -40 11 26 11 36 -4
75 -9 25 -19 63 -21 85 -3 22 -14 59 -24 82 -11 23 -27 76 -35 118 -26 123
-33 131 -34 35z m89 -281 c0 -14 -36 -10 -50 6 -20 24 -2 37 26 19 13 -9 24
-20 24 -25z"/>
<path d="M1897 1117 c-11 -29 -9 -43 4 -30 6 6 9 19 7 29 -3 18 -4 18 -11 1z"/>
<path d="M2134 1096 c-4 -10 -2 -34 4 -54 6 -20 16 -70 23 -109 6 -40 15 -75
20 -78 8 -5 3 85 -6 113 -3 7 0 10 6 7 6 -4 8 3 4 19 -3 14 -8 38 -11 53 -3
14 -12 35 -19 46 -13 19 -15 19 -21 3z"/>
<path d="M2521 1074 c0 -11 3 -14 6 -6 3 7 2 16 -1 19 -3 4 -6 -2 -5 -13z"/>
<path d="M1892 1050 c0 -14 2 -19 5 -12 2 6 2 18 0 25 -3 6 -5 1 -5 -13z"/>
<path d="M1991 1041 c-8 -17 -11 -34 -8 -38 8 -7 29 46 24 60 -2 6 -9 -4 -16
-22z"/>
<path d="M2092 1031 c2 -22 -1 -37 -6 -34 -5 4 -7 -10 -3 -33 5 -29 4 -35 -4
-24 -8 11 -9 7 -6 -17 2 -18 1 -31 -1 -28 -3 3 -16 -13 -30 -36 -13 -22 -22
-43 -19 -46 3 -3 13 9 22 27 9 18 19 29 22 26 3 -3 1 -11 -4 -18 -6 -7 -13
-26 -17 -43 -4 -19 -3 -25 2 -16 8 11 10 11 15 0 4 -10 6 -9 6 3 1 10 10 35
21 56 22 42 39 151 30 192 -3 14 -11 26 -19 28 -10 2 -12 -7 -9 -37z"/>
<path d="M696 1037 c3 -10 9 -15 12 -12 3 3 0 11 -7 18 -10 9 -11 8 -5 -6z"/>
<path d="M2037 1036 c-4 -11 -3 -22 3 -26 6 -4 8 -15 4 -25 -5 -12 -4 -16 3
-12 13 8 24 47 13 47 -5 0 -10 8 -12 18 -3 15 -4 15 -11 -2z"/>
<path d="M1886 984 c-4 -14 -5 -29 -2 -31 3 -3 8 7 12 21 3 15 4 29 1 32 -2 3
-8 -7 -11 -22z"/>
<path d="M1905 930 c-8 -13 -14 -171 -6 -166 3 2 6 -13 6 -33 1 -45 24 -106
37 -93 5 5 3 27 -6 53 -9 25 -17 90 -18 147 -2 56 -4 102 -5 102 -1 0 -4 -4
-8 -10z"/>
<path d="M1945 888 c5 -100 8 -131 12 -110 2 12 9 20 14 17 13 -8 11 40 -3 86
-14 47 -26 51 -23 7z m22 -60 c-3 -8 -6 -5 -6 6 -1 11 2 17 5 13 3 -3 4 -12 1
-19z"/>
<path d="M568 870 c-2 -25 -2 -54 2 -65 6 -16 8 -13 11 15 2 19 2 49 -2 65 -5
28 -6 26 -11 -15z"/>
<path d="M782 833 c2 -39 0 -69 -4 -67 -3 2 -9 -24 -14 -59 -6 -51 -9 -58 -15
-37 -7 20 -7 19 -2 -5 3 -16 6 -65 5 -108 -1 -58 2 -77 11 -74 11 3 20 56 31
192 3 33 8 85 12 115 4 41 2 62 -11 85 -16 30 -16 30 -13 -42z"/>
<path d="M758 840 c4 -44 2 -50 -12 -44 -13 5 -16 0 -15 -22 l1 -29 8 25 c7
23 8 23 10 -10 l2 -35 9 40 c11 53 11 125 0 125 -4 0 -6 -23 -3 -50z"/>
<path d="M895 853 c16 -38 25 -52 25 -39 0 12 -29 76 -35 76 -3 0 2 -17 10
-37z"/>
<path d="M837 866 c-11 -27 -9 -263 1 -282 9 -17 11 -15 17 11 3 17 11 40 16
53 5 13 9 33 10 45 0 21 1 21 9 2 16 -38 10 -4 -16 88 -30 104 -29 103 -37 83z"/>
<path d="M1647 845 c-21 -45 -21 -59 -1 -51 12 5 15 2 9 -11 -3 -10 -9 -31
-11 -48 l-5 -30 19 35 c24 43 37 94 22 85 -12 -8 -13 -3 0 29 15 41 -13 33
-33 -9z"/>
<path d="M1784 825 c-7 -28 -10 -52 -9 -53 9 -10 26 43 23 71 -3 28 -4 27 -14
-18z"/>
<path d="M415 826 c-6 -7 -48 -30 -95 -52 -47 -21 -94 -46 -106 -56 -11 -10
-28 -18 -37 -18 -9 0 -19 -4 -22 -10 -3 -5 -13 -10 -22 -10 -9 0 -40 -11 -69
-25 -71 -34 -81 -67 -34 -116 41 -43 82 -98 150 -199 73 -109 84 -123 74 -95
-4 11 -4 17 0 14 4 -4 9 -19 12 -35 3 -16 10 -33 16 -39 8 -7 8 -6 3 5 -6 10
-1 8 13 -4 12 -11 22 -15 22 -10 0 5 4 3 9 -5 12 -18 31 -5 32 22 0 21 1 21 9
2 8 -20 9 -20 9 1 1 29 -21 71 -104 199 -65 100 -105 150 -105 130 0 -4 -10 4
-21 19 -12 15 -24 25 -27 22 -2 -3 11 -25 30 -48 60 -74 198 -304 198 -329 -1
-19 -8 -11 -33 35 -39 71 -41 75 -95 154 -25 37 -48 60 -54 56 -7 -4 -8 -2 -4
4 4 7 -6 31 -23 54 -34 51 -117 131 -108 106 4 -12 2 -15 -9 -11 -18 7 -14 23
9 37 13 8 23 4 47 -19 31 -30 73 -45 64 -22 -3 6 -21 24 -41 39 l-35 27 27 7
c23 6 33 0 67 -34 22 -22 69 -86 104 -143 35 -57 68 -103 74 -101 6 1 9 -2 5
-7 -8 -13 24 -63 36 -55 5 3 6 -3 2 -12 -5 -12 -3 -15 6 -9 10 6 11 3 1 -14
-6 -12 -9 -27 -6 -34 2 -7 5 -4 5 6 1 18 21 25 21 7 0 -5 4 -10 9 -10 5 0 7
10 3 22 -8 32 -33 69 -42 63 -9 -5 -22 21 -24 45 -1 8 -6 14 -13 13 -7 -2 -10
3 -8 10 6 16 -69 143 -83 140 -14 -3 -35 33 -36 61 -1 12 -15 30 -33 41 -18
11 -32 24 -33 28 0 13 34 21 38 9 2 -7 9 -12 16 -12 7 0 21 -9 31 -20 10 -11
22 -17 28 -13 6 3 7 1 3 -5 -7 -12 26 -83 73 -152 17 -25 31 -50 31 -56 0 -7
11 -19 24 -27 22 -15 24 -15 20 1 -1 9 -6 35 -9 56 -4 23 -10 35 -14 28 -5 -9
-12 -4 -21 13 -7 14 -17 25 -22 25 -5 0 -6 -5 -2 -12 4 -7 3 -8 -5 -4 -6 4 -9
12 -6 17 4 5 -6 20 -20 33 -14 14 -25 30 -24 38 5 24 -10 66 -26 72 -9 3 -13
2 -10 -4 3 -6 4 -10 1 -10 -3 0 -13 14 -22 31 -8 17 -11 28 -5 24 15 -9 112
45 104 58 -4 6 0 8 11 4 9 -4 15 -3 12 2 -3 5 1 11 9 15 8 3 15 1 15 -4 0 -5
9 -7 20 -5 11 2 20 -2 21 -8 0 -7 5 1 9 17 11 35 0 63 -15 42z m-214 -213 c13
-16 12 -17 -3 -4 -10 7 -18 15 -18 17 0 8 8 3 21 -13z m-80 -116 c12 -18 16
-26 9 -19 -8 6 -18 12 -23 12 -4 0 -5 -6 -2 -12 4 -7 -5 0 -19 17 -17 20 -22
32 -14 36 16 10 23 5 49 -34z m59 -118 c15 -28 5 -23 -15 7 -9 15 -12 23 -6
20 6 -4 16 -16 21 -27z m138 -184 c-3 -3 -9 2 -12 12 -6 14 -5 15 5 6 7 -7 10
-15 7 -18z"/>
<path d="M2236 805 c4 -16 11 -34 16 -40 7 -7 8 -1 3 15 -12 40 -26 59 -19 25z"/>
<path d="M1860 745 c0 -24 5 -35 15 -35 16 0 18 12 9 48 -10 34 -24 26 -24
-13z"/>
<path d="M607 684 c7 -82 13 -96 13 -31 0 46 1 47 30 47 31 0 38 14 19 40 -8
12 -9 10 -4 -7 5 -18 2 -23 -14 -23 -11 0 -27 10 -35 22 -15 20 -15 17 -9 -48z"/>
<path d="M2494 650 c0 -58 1 -81 3 -52 2 28 2 76 0 105 -2 28 -3 5 -3 -53z"/>
<path d="M1659 683 c-18 -20 -28 -43 -39 -90 -11 -47 3 -33 34 33 29 60 31 87
5 57z"/>
<path d="M2310 695 c0 -13 24 -55 32 -55 5 0 2 14 -7 30 -14 27 -25 38 -25 25z"/>
<path d="M1065 660 c11 -14 30 -37 43 -51 13 -15 24 -34 26 -43 1 -9 16 -31
33 -49 32 -34 103 -148 103 -165 0 -21 16 -20 17 0 2 24 -14 57 -57 121 -16
25 -30 49 -30 54 0 5 -25 33 -55 62 -31 30 -53 56 -50 60 4 3 13 -3 21 -13 8
-11 14 -15 14 -9 0 5 -9 18 -20 28 -14 13 -20 14 -20 5 0 -9 -7 -7 -22 6 l-23
19 20 -25z m100 -120 c10 -11 16 -20 13 -20 -3 0 -13 9 -23 20 -10 11 -16 20
-13 20 3 0 13 -9 23 -20z"/>
<path d="M2156 650 c4 -19 15 -59 25 -89 10 -30 24 -102 30 -160 7 -58 15
-110 20 -114 16 -20 19 55 4 144 -8 51 -15 98 -15 102 0 5 -4 5 -10 2 -6 -3
-7 1 -4 9 7 18 -23 104 -43 126 -11 13 -13 10 -7 -20z"/>
<path d="M1870 641 c0 -17 5 -31 10 -31 6 0 10 11 10 24 0 14 -4 28 -10 31 -6
4 -10 -7 -10 -24z"/>
<path d="M2270 638 c2 -33 38 -180 39 -156 1 39 19 44 34 9 7 -17 16 -29 19
-26 2 3 11 -14 18 -37 7 -24 17 -47 21 -52 4 -5 5 -16 1 -24 -5 -14 -4 -15 10
-2 12 12 13 17 3 25 -7 5 -21 38 -31 73 -10 34 -21 57 -25 51 -4 -7 -8 -5 -12
6 -4 9 -3 13 3 10 14 -9 12 6 -6 35 -14 24 -15 24 -11 3 3 -13 2 -23 -3 -23
-4 0 -10 11 -12 25 -3 13 -1 22 3 19 14 -8 10 8 -9 41 -18 31 -42 44 -42 23z"/>
<path d="M1962 610 c0 -19 2 -27 5 -17 2 9 2 25 0 35 -3 9 -5 1 -5 -18z"/>
<path d="M1715 555 c-35 -67 -41 -105 -15 -79 12 12 62 145 57 151 -2 2 -21
-30 -42 -72z"/>
<path d="M727 603 c-2 -4 -10 -31 -17 -60 -12 -44 -11 -53 2 -67 14 -13 16 -8
22 55 7 66 4 91 -7 72z"/>
<path d="M2372 512 c30 -76 48 -108 48 -83 0 7 5 9 13 4 6 -4 4 5 -5 20 -10
14 -18 33 -18 41 0 20 -31 72 -51 84 -13 8 -10 -6 13 -66z"/>
<path d="M2392 580 c2 -7 15 -20 29 -29 l24 -16 -16 24 c-17 27 -44 42 -37 21z"/>
<path d="M1830 506 c-7 -24 -10 -50 -8 -58 3 -7 10 11 17 40 16 65 9 80 -9 18z"/>
<path d="M1926 524 c-3 -9 -6 -26 -6 -39 0 -13 -5 -27 -11 -30 -6 -4 -15 -17
-20 -29 -7 -16 -8 -10 -6 26 5 58 -6 80 -21 41 -11 -28 -42 -215 -42 -249 1
-11 9 1 19 26 31 78 40 110 30 110 -6 0 -7 5 -4 10 3 6 11 10 17 10 6 0 8 -3
5 -6 -3 -4 -2 -16 4 -27 8 -14 8 -18 0 -13 -12 8 -14 -19 -2 -47 5 -13 12 3
23 55 27 120 36 219 14 162z"/>
<path d="M0 506 c0 -9 6 -19 13 -22 7 -2 13 -13 14 -24 1 -13 -3 -17 -14 -13
-15 6 -15 4 -2 -13 61 -84 102 -133 109 -129 4 3 14 -3 21 -13 13 -15 12 -16
-3 -3 -31 23 -20 1 33 -70 28 -38 55 -67 60 -63 5 3 6 -3 2 -12 -4 -11 -2 -15
4 -11 6 4 10 1 10 -6 -1 -20 46 -116 60 -121 9 -4 13 6 13 34 0 22 -4 40 -10
40 -11 0 -55 80 -52 93 5 17 -191 290 -237 331 -19 17 -21 17 -21 2z m66 -73
c15 -20 23 -33 16 -29 -13 8 -56 66 -49 66 3 0 17 -17 33 -37z m-15 -20 c13
-16 12 -17 -3 -4 -10 7 -18 15 -18 17 0 8 8 3 21 -13z m60 -40 c13 -16 12 -17
-3 -4 -10 7 -18 15 -18 17 0 8 8 3 21 -13z m49 -68 c17 -25 29 -45 26 -45 -3
0 -19 20 -36 45 -17 25 -29 45 -26 45 3 0 19 -20 36 -45z m51 -72 c13 -16 12
-17 -3 -4 -10 7 -18 15 -18 17 0 8 8 3 21 -13z m30 -40 c13 -16 12 -17 -3 -4
-10 7 -18 15 -18 17 0 8 8 3 21 -13z"/>
<path d="M983 442 c-7 -4 -19 -26 -27 -47 -8 -23 -15 -32 -15 -20 -1 31 -18 4
-24 -40 -8 -48 8 -84 18 -43 4 15 4 32 -1 39 -4 7 -3 10 2 6 6 -3 18 18 28 46
16 44 20 49 27 32 6 -17 7 -16 6 8 -1 15 -2 27 -2 27 0 0 -6 -4 -12 -8z"/>
<path d="M2505 435 l-30 -15 35 6 c19 3 39 10 45 15 14 14 -16 10 -50 -6z"/>
<path d="M1553 378 c-17 -29 -33 -60 -36 -68 -4 -10 -6 -11 -6 -2 -1 7 4 23
10 34 7 14 8 18 0 14 -43 -27 -41 -356 3 -356 8 0 12 41 12 128 1 113 5 137
31 215 16 48 27 87 23 87 -3 0 -20 -24 -37 -52z m-46 -110 c-3 -8 -6 -5 -6 6
-1 11 2 17 5 13 3 -3 4 -12 1 -19z"/>
<path d="M886 405 c-3 -9 -6 -26 -5 -38 1 -16 4 -12 10 12 10 34 6 55 -5 26z"/>
<path d="M1771 394 c0 -11 3 -14 6 -6 3 7 2 16 -1 19 -3 4 -6 -2 -5 -13z"/>
<path d="M452 380 c0 -14 6 -41 13 -60 18 -46 18 -28 1 35 -9 30 -14 40 -14
25z"/>
<path d="M2533 373 c-31 -21 -29 -35 2 -21 14 6 25 17 25 25 0 16 1 16 -27 -4z"/>
<path d="M0 370 c0 -9 6 -22 12 -28 10 -10 10 -14 0 -21 -10 -6 2 -27 45 -82
31 -41 83 -112 115 -158 32 -47 58 -79 58 -72 0 8 6 11 16 7 18 -7 18 -7 -49
93 -27 40 -64 90 -82 110 -18 20 -51 65 -74 101 -22 36 -41 58 -41 50z m80
-130 c12 -16 19 -30 16 -30 -2 0 -14 14 -26 30 -12 17 -19 30 -16 30 2 0 14
-13 26 -30z"/>
<path d="M2002 259 c-2 -80 0 -119 7 -119 13 0 15 208 3 226 -4 7 -8 -42 -10
-107z"/>
<path d="M2271 364 c0 -11 3 -14 6 -6 3 7 2 16 -1 19 -3 4 -6 -2 -5 -13z"/>
<path d="M1629 343 c-5 -14 -12 -54 -14 -87 -4 -56 -4 -59 10 -42 11 15 12 22
3 27 -8 5 -8 14 0 36 22 52 31 93 21 93 -5 0 -14 -12 -20 -27z"/>
<path d="M786 342 c-13 -21 -44 -202 -44 -252 1 -52 1 -53 10 -20 5 19 13 54
18 78 5 24 19 73 30 109 23 75 24 91 4 48 l-14 -30 6 38 c6 35 2 47 -10 29z"/>
<path d="M1932 330 c0 -14 2 -19 5 -12 2 6 2 18 0 25 -3 6 -5 1 -5 -13z"/>
<path d="M1761 314 c0 -11 3 -14 6 -6 3 7 2 16 -1 19 -3 4 -6 -2 -5 -13z"/>
<path d="M1872 300 c0 -14 2 -19 5 -12 2 6 2 18 0 25 -3 6 -5 1 -5 -13z"/>
<path d="M1781 294 c0 -11 3 -14 6 -6 3 7 2 16 -1 19 -3 4 -6 -2 -5 -13z"/>
<path d="M2525 265 c-17 -13 -25 -24 -19 -25 15 0 61 37 54 44 -3 3 -19 -6
-35 -19z"/>
<path d="M2246 220 c3 -30 11 -62 16 -70 6 -10 7 3 3 39 -3 30 -11 62 -16 70
-7 11 -8 -1 -3 -39z"/>
<path d="M4 218 c3 -24 5 -44 5 -46 1 -2 5 -1 10 2 5 4 7 -3 4 -14 -3 -11 -10
-17 -16 -13 -6 3 -7 1 -3 -5 10 -17 26 -15 26 4 0 14 3 14 15 4 9 -7 13 -15
11 -18 -8 -7 12 -41 52 -89 23 -29 42 -43 58 -43 l24 0 -20 37 c-11 21 -40 63
-65 93 -24 30 -55 72 -67 92 -30 49 -40 48 -34 -4z m77 -75 c13 -16 12 -17 -3
-4 -17 13 -22 21 -14 21 2 0 10 -8 17 -17z"/>
<path d="M1761 234 c0 -11 3 -14 6 -6 3 7 2 16 -1 19 -3 4 -6 -2 -5 -13z"/>
<path d="M1808 173 c-4 -66 2 -173 10 -173 4 0 7 49 7 110 0 110 -11 151 -17
63z"/>
<path d="M1746 184 c-4 -14 -5 -28 -3 -31 3 -2 8 8 11 23 4 14 5 28 3 31 -3 2
-8 -8 -11 -23z"/>
<path d="M2523 183 c-32 -16 -44 -33 -23 -33 20 0 60 24 60 37 0 7 -1 13 -2
12 -2 0 -18 -8 -35 -16z"/>
<path d="M2392 157 c2 -15 8 -26 13 -25 12 3 8 29 -7 43 -6 7 -8 1 -6 -18z"/>
<path d="M330 125 c0 -15 4 -24 10 -20 6 3 10 12 10 20 0 8 -4 17 -10 20 -6 4
-10 -5 -10 -20z"/>
<path d="M1732 115 c0 -16 2 -22 5 -12 2 9 2 23 0 30 -3 6 -5 -1 -5 -18z"/>
<path d="M26 112 c-3 -5 3 -32 12 -60 14 -42 21 -52 40 -52 19 0 21 3 12 19
-5 11 -14 22 -19 26 -5 3 -12 19 -16 35 -7 32 -20 46 -29 32z"/>
<path d="M382 94 c-7 -8 -10 -14 -6 -14 3 0 1 -6 -5 -13 -6 -8 -8 -17 -4 -20
3 -4 1 -7 -5 -7 -7 0 -12 -9 -12 -20 0 -36 15 -21 32 33 9 28 15 53 15 53 -1
1 -8 -4 -15 -12z"/>
<path d="M668 65 c14 -28 61 -70 68 -62 4 4 2 21 -3 39 -10 29 -11 30 -12 9
l-1 -25 -31 30 c-22 20 -29 23 -21 9z"/>
<path d="M2420 69 c0 -24 45 -71 64 -67 13 2 8 12 -23 43 -27 25 -41 34 -41
24z"/>
<path d="M628 38 c-3 -28 0 -33 19 -34 20 -2 21 1 10 25 -18 42 -24 45 -29 9z"/>
<path d="M765 53 c2 -10 4 -25 5 -33 1 -10 3 -11 6 -3 3 7 13 9 22 6 12 -4 10
1 -7 20 -29 32 -30 32 -26 10z"/>
<path d="M1 24 c0 -11 3 -14 6 -6 3 7 2 16 -1 19 -3 4 -6 -2 -5 -13z"/>
<path d="M751 14 c0 -11 3 -14 6 -6 3 7 2 16 -1 19 -3 4 -6 -2 -5 -13z"/>
</g>
</svg>
